<svg xmlns="http://www.w3.org/2000/svg" viewBox="0 0 96 96" fill="none">
  <rect width="96" height="96" rx="28" fill="#201E29"/>
  <path
    d="M48 11L19 85H31.2L38.1 67.4H57.9L64.8 85H77L48 11Z"
    stroke="#F4F0E8"
    stroke-width="6"
    stroke-linejoin="round"
  />
  <circle cx="48" cy="51.4" r="16.6" fill="#D2A04C"/>
  <path
    d="M40.54 39.6H50.22C55.98 39.6 59.34 42.48 59.34 46.96C59.34 50.24 57.66 52.52 54.7 53.44C58.5 54.08 60.94 57 60.94 61.12C60.94 66.56 56.9 69.84 49.98 69.84H40.54V39.6ZM48.82 51.72C51.86 51.72 53.7 50.32 53.7 47.96C53.7 45.6 51.86 44.36 48.82 44.36H45.58V51.72H48.82ZM49.54 64.96C53.1 64.96 55.14 63.4 55.14 60.68C55.14 58.04 53.1 56.56 49.54 56.56H45.58V64.96H49.54Z"
    fill="#1F1D28"
  />
</svg>
